/* XPM */
static char *bitcoin64[] = {
/* columns rows colors chars-per-pixel */
"64 64 64 1 ",
"  c #000000",
". c #0C0101",
"X c #0B0B0B",
"o c #130202",
"O c #1B0303",
"+ c #0F1111",
"@ c #141414",
"# c #1B1B1B",
"$ c #230404",
"% c #2B0505",
"& c #340606",
"* c #3B0707",
"= c #1E2222",
"- c #232323",
"; c #2C2C2C",
": c #343434",
"> c #3B3B3B",
", c #410707",
"< c #450808",
"1 c #4B0808",
"2 c #530909",
"3 c #5B0A0A",
"4 c #640B0B",
"5 c #6B0C0C",
"6 c #740D0D",
"7 c #7C0E0E",
"8 c gray26",
"9 c #4B4B4B",
"0 c #535353",
"q c #5B5B5B",
"w c #656565",
"e c #6B6B6B",
"r c #747474",
"t c #7C7C7C",
"y c #830F0F",
"u c #8A0F0F",
"i c #8F1010",
"p c #931010",
"a c #9B1111",
"s c #A31212",
"d c #AD1313",
"f c #B41414",
"g c #BC1515",
"h c #C31515",
"j c #CF1717",
"k c #D11717",
"l c #D51818",
"z c #DB1818",
"x c #E31919",
"c c #ED1A1A",
"v c #848484",
"b c gray54",
"n c #939393",
"m c #9B9B9B",
"M c #A3A3A3",
"N c #ACACAC",
"B c #B1B1B1",
"V c gray73",
"C c #C3C3C3",
"Z c #CDCDCD",
"A c #D6D6D6",
"S c #E2E2E2",
"D c gray92",
"F c None",
/* pixels */
"FFFFFFFFFFFFFFFFFFFFFFFFFFFF>>>>>>>>>FFFFFFFFFFFFFFFFFFFFFFFFFFF",
"FFFFFFFFFFFFFFFFFFFFFFF>>>>>>>>>>>>>>>>>>FFFFFFFFFFFFFFFFFFFFFFF",
"FFFFFFFFFFFFFFFFFFFF>>>>>>>>>::>::>>>>>>>>>>FFFFFFFFFFFFFFFFFFFF",
"FFFFFFFFFFFFFFFFFF>>>>>>:;-#@XX  XXX##;:>>>>>>FFFFFFFFFFFFFFFFFF",
"FFFFFFFFFFFFFFFF>>>>>:-@X               @-:>>>>>FFFFFFFFFFFFFFFF",
"FFFFFFFFFFFFFF>>>>>:#X                     @:>>>>>FFFFFFFFFFFFFF",
"FFFFFFFFFFFFF>>>8:#                          @;>>>>FFFFFFFFFFFFF",
"FFFFFFFFFFFF>>>>-                              #:>>>FFFFFFFFFFFF",
"FFFFFFFFFFF>>>:@                                X;8>>FFFFFFFFFFF",
"FFFFFFFFFF>>>;X                                   ->>>>FFFFFFFFF",
"FFFFFFFFF>>>-                                      #>>>FFFFFFFFF",
"FFFFFFFF>>>=    <5                                  @>>>FFFFFFFF",
"FFFFFFF>>>-oo   pc2                                  #>>>FFFFFFF",
"FFFFFF>>>; udo  *zi                                   ->>>FFFFFF",
"FFFFF>>>:X 7cp.  ff                                    ;>>>FFFFF",
"FFFFF>>>+  .scp  5f                                    X:>>FFFFF",
"FFFF>>>- syo 6zy o*                   o&*&$o            @>>>FFFF",
"FFFF>>: .scg3 *4               .oo  o5fklkjdp2o          ;>>FFFF",
"FFF>>8#  o5fly      ,4&.     %7sffa7dzlkkjklzzg4o        X>>>FFF",
"FFF>>:      %&  o%*slhlf<   4jzzllzzlkjjjjjjjjlzd&        ;>>FFF",
"FF>>>#         %fzxg*o*iz7o7zkjjjjjjjjjjjjjjjjjjlj2       @>>>FF",
"FF>>>X        off<2$    <kfkkjjjjjjjjjjjjjjjjjjjjkk2       ;>>FF",
"FF>>;         2l&        *hzkjjjjjjjjjjjkllkjjjjjjlj*      #>>FF",
"F>>>@         pf          %alzkjjkkkjklzkggkzlkjjjjlgO     X>>>F",
"F>>:X         fy            *pjzljggkjgy*oO*6djjjjjjzy      :>>F",
"F>>;         og5              %7hlha52%     %7zzljjjkl*     ->>F",
"F>8-         og4                O2agjhfdasdglhaagzljkza     #>>F",
"F>>#         of7                   o,36usau6<o  O3hzjkk%    X>>F",
">>>@          dp                                  %dzjzy    X:>>",
">>>X          ad      oo                           Odlls.    :>>",
">>>X          6g      3fo                           2kz5     :>>",
">>:X          <k%     Ohp                         &uhkj%     :>>",
">>:X          Ol5      &z5                      ,pkzkz6      :>>",
">>>X           ad       2x<                  .1slzkjzgo      :>>",
">>>X           2l%       7z,              O*5dzzkjkjz2       :>>",
":>>@           oga        7l2           <pfzzlkjjjjzp       X:>>",
"F>>#            *x7.       5k6.      .<dlzljjjjjjjlhO       X>>F",
"F>>-             4zf5<Oo O%<fzfsau635szlkjkjjjjjjkl2        @>>F",
"F>>;              <lzzhfffkzkjlzzzzzzljjjjjkjjjjjzy         ->>F",
"F>>>               5zkklllkkjjjjjjjjjjjjjjjjjjkkzs.         ;>>F",
"F>>>@               axjjjjjjjjjjjjjjjjjjjjjjjjjzfO         X:>>F",
"FF>>-               oszjjjjjjjjjjjjjjkjjjjjjkkzd%          #>>FF",
"FF>>>                oszkjjjkjjjjjjjjjjjjjkjlzpo           ;>>FF",
"FF>>>#                opzljjjjjjjjjjjjjjjjlzf3            X>>>FF",
"FFF>>:                  4hzlkjjkjjjjkjjlzzf4o             ->>FFF",
"FFF>>>#                  O6fkzzzzzzzlljdy<o              X>>>FFF",
"FFFF>>:                    o&47uuuy63,%.                 ;>>FFFF",
"FFFF>>>#          ;v>                         w-        @>>>FFFF",
"FFFFF>>>X @8   X9bDCX  #0@              X     #X        :>>FFFFF",
"FFFFFF>>: @mmrtmtNb-8wmDV+     #-      qBe       qV#   ;>>>FFFFF",
"FFFFFF>>>;  >w8#bArvwvAnX    Xvmv8    ebtr      wNbq  #>>>FFFFFF",
"FFFFFFF>>>-    ;Ze-Xvm:X#    ve >>   ;MXq# - Xe tv8Cm8:>>FFFFFFF",
"FFFFFFFF>>8#    X Xmw qnBM  qr       v>   8Ar:m vm ve:>>FFFFFFFF",
"FFFFFFFFF>>>-     bq ve;Nb8rSMt- 0v8-m    b8mwe mm X:>>FFFFFFFFF",
"FFFFFFFFFF>>>-    tX@CnVN >At-@ rbVmqw  Xqm;nwVv:@#>>>FFFFFFFFFF",
"FFFFFFFFFFF>>8;@  X  #-:M9:m   9t-C#vq qmtAV8X9# ->>>FFFFFFFFFFF",
"FFFFFFFFFFFF>>>>#       X-M:   vNnCrmZVM; q>   @:>>>FFFFFFFFFFFF",
"FFFFFFFFFFFFF>>>>:@      tq    -0X#0#::      X->>>>FFFFFFFFFFFFF",
"FFFFFFFFFFFFFFF>>>>;@  #ve                 X;>>>>>FFFFFFFFFFFFFF",
"FFFFFFFFFFFFFFFF>>>>>:qb9               X#;>>>>>FFFFFFFFFFFFFFFF",
"FFFFFFFFFFFFFFFFFF>>>>8>;-#@X       @#-;>>>>>>FFFFFFFFFFFFFFFFFF",
"FFFFFFFFFFFFFFFFFFFF>>>>>>>>>:>:::>>>>>>>>>>FFFFFFFFFFFFFFFFFFFF",
"FFFFFFFFFFFFFFFFFFFFFFF>>>>>>>>>8>>>>>>>>FFFFFFFFFFFFFFFFFFFFFFF",
"FFFFFFFFFFFFFFFFFFFFFFFFFFFF>>>>>>>>FFFFFFFFFFFFFFFFFFFFFFFFFFFF"
};
