/* XPM */
static char *bitcoin128[] = {
/* columns rows colors chars-per-pixel */
"128 128 65 1 ",
"  c #000000",
". c #0B0101",
"X c #0C0C0C",
"o c #140202",
"O c #1C0303",
"+ c #131313",
"@ c #1C1C1C",
"# c #230404",
"$ c #2B0505",
"% c #340606",
"& c #3B0707",
"* c #242424",
"= c #2C2C2C",
"- c #343434",
"; c #3A3A3A",
": c #420707",
"> c #450808",
", c #4B0808",
"< c #530909",
"1 c #5B0A0A",
"2 c #640B0B",
"3 c #6C0C0C",
"4 c #730D0D",
"5 c #7B0E0E",
"6 c #444444",
"7 c #4A4A4A",
"8 c #545454",
"9 c #5B5B5B",
"0 c #636363",
"q c #6B6B6B",
"w c #747474",
"e c #7C7C7C",
"r c #830E0E",
"t c #8B0F0F",
"y c #900F0F",
"u c #8D1010",
"i c #941010",
"p c #9C1111",
"a c #A41212",
"s c #AB1313",
"d c #B41414",
"f c #BC1515",
"g c #C41616",
"h c #CF1717",
"j c #D21717",
"k c #D51818",
"l c #DB1818",
"z c #E21919",
"x c #848484",
"c c #8B8B8B",
"v c #929292",
"b c #9C9C9C",
"n c #A4A4A4",
"m c #ABABAB",
"M c #B3B3B3",
"N c #BCBCBC",
"B c #C2C2C2",
"V c #CBCBCB",
"C c #D4D4D4",
"Z c #DBDBDB",
"A c #E4E4E4",
"S c #ECECEC",
"D c #F3F3F3",
"F c #FDFDFD",
"G c None",
/* pixels */
"GGGGGGGGGGGGGGGGGGGGGGGGGGGGGGGGGGGGGGGGGGGGGGGGGGGGGGGGGGGGGGGGGGGGGGGGGGGGGGGGGGGGGGGGGGGGGGGGGGGGGGGGGGGGGGGGGGGGGGGGGGGGGGGG",
"GGGGGGGGGGGGGGGGGGGGGGGGGGGGGGGGGGGGGGGGGGGGGGGGGGGGGGGGGGG;;;;;;;;;;GGGGGGGGGGGGGGGGGGGGGGGGGGGGGGGGGGGGGGGGGGGGGGGGGGGGGGGGGGG",
"GGGGGGGGGGGGGGGGGGGGGGGGGGGGGGGGGGGGGGGGGGGGGGGGGGGG;;;;;;;;;;;;;;;;;;;;;;;;GGGGGGGGGGGGGGGGGGGGGGGGGGGGGGGGGGGGGGGGGGGGGGGGGGGG",
"GGGGGGGGGGGGGGGGGGGGGGGGGGGGGGGGGGGGGGGGGGGGGGGG;;;;;;;;;;;;;;;;;;;;;;;;;;;;;;;;GGGGGGGGGGGGGGGGGGGGGGGGGGGGGGGGGGGGGGGGGGGGGGGG",
"GGGGGGGGGGGGGGGGGGGGGGGGGGGGGGGGGGGGGGGGGGGGG;;;;;;;;;;;;;;;;;;;;;;;;;;;;;;;;;;;;;;;GGGGGGGGGGGGGGGGGGGGGGGGGGGGGGGGGGGGGGGGGGGG",
"GGGGGGGGGGGGGGGGGGGGGGGGGGGGGGGGGGGGGGGGGG;;;;;;;;;;;;;;;;;;;;6;;;;;;;;;;;;;;;;;;;;;;;GGGGGGGGGGGGGGGGGGGGGGGGGGGGGGGGGGGGGGGGGG",
"GGGGGGGGGGGGGGGGGGGGGGGGGGGGGGGGGGGGGGG;;;;;;;;;;;;;;;;;;;-;;-;=;--=;;-;;;;;;;;;;;;;;;;;;GGGGGGGGGGGGGGGGGGGGGGGGGGGGGGGGGGGGGGG",
"GGGGGGGGGGGGGGGGGGGGGGGGGGGGGGGGGGGGG;;;;;;;;;;;;;;;;--*@++XXX X XXXX++@*=--;;;;;;;;;;;;;;;GGGGGGGGGGGGGGGGGGGGGGGGGGGGGGGGGGGGG",
"GGGGGGGGGGGGGGGGGGGGGGGGGGGGGGGGGGG;;;;;;;;;;;;;;==@XX                  X XX+*=;;;;;;;;;;;;;;GGGGGGGGGGGGGGGGGGGGGGGGGGGGGGGGGGG",
"GGGGGGGGGGGGGGGGGGGGGGGGGGGGGGGGG;;;;;;;;;;;;;=*XX                             X@*-;;;;;;;;;;;;GGGGGGGGGGGGGGGGGGGGGGGGGGGGGGGGG",
"GGGGGGGGGGGGGGGGGGGGGGGGGGGGGGGG;;;;;;;;;;;=*X                                    X@=;;;;;;;;;;;GGGGGGGGGGGGGGGGGGGGGGGGGGGGGGGG",
"GGGGGGGGGGGGGGGGGGGGGGGGGGGGGG;;;;;;;;;;;=+X                                         X@=;;;;;;;;;;GGGGGGGGGGGGGGGGGGGGGGGGGGGGGG",
"GGGGGGGGGGGGGGGGGGGGGGGGGGGGG;;;;;;;6;-=X                                              X@=;;;;;;;;;;GGGGGGGGGGGGGGGGGGGGGGGGGGGG",
"GGGGGGGGGGGGGGGGGGGGGGGGGGG;;;;;;;;;;*X                                                  X@=;;;;;;;;;GGGGGGGGGGGGGGGGGGGGGGGGGGG",
"GGGGGGGGGGGGGGGGGGGGGGGGGG;;;;;;;;;*X                                                      X@;;;;;;;;;GGGGGGGGGGGGGGGGGGGGGGGGGG",
"GGGGGGGGGGGGGGGGGGGGGGGGG;;;;;;;;-@X                                                         X=;;;;;;;;;GGGGGGGGGGGGGGGGGGGGGGGG",
"GGGGGGGGGGGGGGGGGGGGGGG;;;;;;;;;*X                                                             @-;;;;;;;;GGGGGGGGGGGGGGGGGGGGGGG",
"GGGGGGGGGGGGGGGGGGGGGG;;;;;;;;;+                                                                X=;;;;;;;;GGGGGGGGGGGGGGGGGGGGGG",
"GGGGGGGGGGGGGGGGGGGGG;;;;;;;;=X                                                                   *;;;;;;;;GGGGGGGGGGGGGGGGGGGGG",
"GGGGGGGGGGGGGGGGGGGG;;;;;;;;*X                                                                     +-;;;;;;;GGGGGGGGGGGGGGGGGGGG",
"GGGGGGGGGGGGGGGGGGG;;;;;;;;@                                                                        X=;;;;;;;GGGGGGGGGGGGGGGGGGG",
"GGGGGGGGGGGGGGGGGG;;;;;;;;+                                                                          X=;;;;;;;GGGGGGGGGGGGGGGGGG",
"GGGGGGGGGGGGGGGGG;;;;;;;;+                                                                            X*;;;;;;;GGGGGGGGGGGGGGGGG",
"GGGGGGGGGGGGGGGG;;;;;;;-X        #>:.                                                                  X*;;;;;;;GGGGGGGGGGGGGGGG",
"GGGGGGGGGGGGGGGG;;;;;;-+        otkh<                                                                   X*;;;;;;;GGGGGGGGGGGGGGG",
"GGGGGGGGGGGGGGG;;;;;;-+         Odzlf$                                                                   X*;;;;;;GGGGGGGGGGGGGGG",
"GGGGGGGGGGGGGG;;;;;;;@ O<%       5jlk1                                                                    X=;;;;;;GGGGGGGGGGGGGG",
"GGGGGGGGGGGGG;;;;;;;@ .3lf&      %dlkuo                                                                    X-;;;;;;GGGGGGGGGGGGG",
"GGGGGGGGGGGGG;;;;;;*  #azls$      ylkaO                                                                     X;;;;;;GGGGGGGGGGGGG",
"GGGGGGGGGGGG;;;;;;=X  .uljliO     ,glf#                                                                      *;;;;;;GGGGGGGGGGGG",
"GGGGGGGGGGG;;;;;;;+    %fljluo    oszh$                                                                      X*;;;;;;GGGGGGGGGGG",
"GGGGGGGGGGG;;;;;;@      ,hljlro    4lh$                                                                       X=;;;;;GGGGGGGGGGG",
"GGGGGGGGGG;;;;;;*X #&    <flkkro   #gf#                                                                        +;;;;;;GGGGGGGGGG",
"GGGGGGGGGG;;;;;-X #if5O   %ikzk2.   ,,.                                         .oo                             *;;;;;;GGGGGGGGG",
"GGGGGGGGG;;;;;;@  <llkp,   O3fzk&                                           %25ttiy52<%#                        X-;;;;;GGGGGGGGG",
"GGGGGGGG;;;;;;=X  %gzjlgr%   %4i&                                         &rsjzllllzlgdpt2%                      @;;;;;;GGGGGGGG",
"GGGGGGGG;;;;;;+   .>dlklld3O   ..                             o%:&&%O   #4dllhhhhhhjhjklzksr,.                   X=;;;;;GGGGGGGG",
"GGGGGGGG;;;;;=      $5sjzzla$            O%:O              o,5isfffdpt22aklhjhhhhhhhhhjhhjllhu>                   +;;;;;;GGGGGGG",
"GGGGGGG;;;;;-+        %<5pdf>          $4pdfar1o          <phlzlkkkllzkkljhhhhhhhhhhhjhhhhjhklgr%                 X=;;;;;GGGGGGG",
"GGGGGGG;;;;;=X          .#%%o         <slzzzzzji<.      o4gzjhhhjhhhhhjjhhhhhhhhhhhhhhhhhhhhhhllf1                 +;;;;;;GGGGGG",
"GGGGGG;;;;;;+                    %4tttgllsr5phzzhr#    $ijkhhhhhhhhhhhhhhhhhhhhhhhhhhhhhhhhhhhhhlh4o               X=;;;;;GGGGGG",
"GGGGGG;;;;;=X                   2dlzzzlj5%..#:2dzza:  #aljhhhhhhhhhhhjhhhhhhhhhhhhhhhhhhhhhhhhhhhkki$               @;;;;;GGGGGG",
"GGGGG;;;;;;@                   1jzlhhll3       &rjzf1#iljjhhhhhhhhhhhhhhhhhhjhhhhhhhjhhhhhhhhhhhhhkla%               =6;;;;GGGGG",
"GGGGG;;;;;=X                  :glg5&&<1o        .2hzgshhhhjhhhhhhhhhhhhhhhhhhhhhhhhjhhhhjhhhhhjhhhjjla$              *;;;;;GGGGG",
"GGGGG;;;;;*                   izl2.               1hlljhhhhhhhhhhhhhhhhhhhhjhhhhhhhhhhhhhhhhhjhhhhhhjliO             +-;;;;GGGGG",
"GGGG;;;;;;@                  %fziO                 <flhhhhhhhhjhhhhhhhjhhhhhjhhhhhhhhhhhhhhhhhhhhhhhhjkro            X=;;;;;GGGG",
"GGGG;;;;;-X                  4kl<                   :slkhhhhhhhhjhhhhhhhhhhhhhhhhjjjjjhhhhhhhhhhhhhhhhkk3             @;;;;;GGGG",
"GGGG;;;;;*                   yzh%                    $illkjhhhhhhhhhhhhhhhhhhhhjkkklkkkjjhhhhhhhhhhhhhhlh:            X-;;;;GGGG",
"GGGG;;;;;+                  oazaO                     o<pjljjhjhhhhjjjjhhhhjjjjlhp445yfllkkjhhhhhhhhhhhhlpO            -;;;;;GGG",
"GGG;;;;;=X                  %dzro                       O>uhljjjhhhhhhjjjkjjklf2%O...o$<rfkjhhhhhjhhhhhhjl3            *;;;;;GGG",
"GGG;;;;;=X                  :fl4.                         O&4gkkjhhfatisghgsp3%         o$1sjhhhhhhhhhhjhkf&           +;;;;;GGG",
"GGG;;;;;*                   ,gz2                            .%2dkkjhfsy1%$#Oo            O<ajhhhhhhhhhhhjhluo          X-;;;;GGG",
"GGG;;;;;+                   <gz<                               #1aklllhdp42<&%#o ..o#$:2psgjkkkkjjhhhhhhhhjj,          X-;;;;GGG",
"GG;;;;;-X                   <hl<                                 O&2phllzljhggdssssddfgjzzlkgfhkkkkhhhhhhhjlto          *;;;;;GG",
"GG;;;;;-X                   ,gz2                                   .O$<ufkjkllzzzzzlllllha3>$#$&3dkjhhhhhhjjg&          @;;;;;GG",
"GG;;;;6=                    &fz4.                                      O$&,145iadfdait52%O.     .#1fljhhhjhhz4          +;;;;;GG",
"GG;;;;;*                    %dzto                                           .ooO###Ooo.            %pkkhhhhhks$         X;;;;;GG",
"GG;;;;;@                    $sziO                                                                   O4jkhhjhjl2         X-;;;;GG",
"GG;;;;;+                    Oazs#                                                                    .2kkhhhjlpO         -;;;;GG",
"GG;;;;;+                    opzf$             .                                                       .4kjhhhks$         =;;;;GG",
"GG;;;;;X                     tzh%            &u>                                                       .5kjhjl5.         =;;;;;G",
"GG;;;;-X                     3ll&           .5zd$                                                       $slhjj<          =;;;;;G",
"G;;;;;;X                     ,gz1            ,jzpo                                                    o,phjhla#          *;;;;;G",
"G;;;;;-X                     $sziO           .4kk4.                                                 O<ahkjhjl2           *;;;;;G",
"G;;;;;=X                     .pzg%            oplh1                                              .O2shkkjhhla#           *;;;;;G",
"G;;;;;-X                      rzk1             %fzg&                                           .#3dhkkhjhhjj1            *;;;;;G",
"G;;;;;-X                      <glyo             ,hzs#                                        .#5fjkkjhhhhhlio            *;;;;;G",
"GG;;;;;X                      oalg$              2kzio                                     .%rgkljjhhhhhhlg,             =;;;;;G",
"GG;;;;-+                       5kl<              orllr.                                 .O&thjkkhhhhhhhhjlr              =;;;;;G",
"GG;;;;;X                       &fzy.              Oilj5o                             O#&3phkkhhhhhhhhhhhld%              -;;;;GG",
"GG;;;;;@                        pzh>               $slk5o                         o$2pghjjkjhhhhhhhhhhhjk2               -;;;;GG",
"GG;;;;;@                        <gzs#               $azlro                     .$2ahjklkkjhhhhhhhhhjhhjluo              X-;;;;GG",
"GG;;;;;*                         rll5.               $pllp%                  .$5gkkkkjhhhhhhhhhhhhhhhhld%               X-;;;;GG",
"GG;;;;;=                         #szj2O               #ijld,.              .$4gkkkjhhhhhhhhhhhhhhhhhhkj1                +;;;;;GG",
"GG;;;;;-                          <hzjp,O.             otjlg5%$$$##Oo..  o$3gkkjhhhhhhhhhhhhhhhhhhhhjlt.                @;;;;;GG",
"GG;;;;;-X                          2gllja2:#O.     .oO%,5gjkkjjhgdspy5212rglkjhhhhhhhhhhhhjhhhhhhhhhls%                 *;;;;;GG",
"GGG;;;;;+                           &akljkkhar2<><25iskkjhhhjkkkkkkkkkkkkkkjhhhhhhhjhhhhhhhhhhhhhhhkh1                  =;;;;GGG",
"GGG;;;;;@                            #aljjkkkkkkkkkkkkkkjhhhhhhhhhjjjjjjjjhjhhhhhhhhjhhhhhhjhhhhhhjk5                  X-;;;;GGG",
"GGG;;;;;=                             >glhhhjjjjkkjjjhjhhjhhhhhhhhhhhhhhjhhhhhhhhhhhhhhhhhhhhhhhhjliO                  +;;;;;GGG",
"GGG;;;;;=X                             3jjhhhhhhhhhhhhhhhhhhhhhhhhhhhhhhhhhhhhhhhhhhhhhhhhhhhhhhjla$                   @;;;;;GGG",
"GGGG;;;;-+                             .pljhhhhhhhhhhhhhhhhhhhhhhhhhhhhhhhhhhhhhhhhhhhhhhhhhhhhhlf&                    =;;;;;GGG",
"GGGG;;;;;@                              $fljhhhhhhhhhhhhhhhhhhhhhhhhjhhhhhhhjhhhhhhhhhhhhhhhhhhkg,                    X-;;;;GGGG",
"GGGG;;;;;=X                              ,flhhhhhhhhhhjhhhhhjhhhhhhhhhhhhhhhhhhhhhjhhjhhhhhhhhlh2                     @;;;;;GGGG",
"GGGG;;;;;;X                               ,fljhhhhhhhhhhhjhhhhhhhhhhhhhhhhhhhhhhhhhhhhhhhhhhjlf1                      =;;;;;GGGG",
"GGGGG;;;;;*                                ,flhhhhhhhhhhhhhhhjhhhhhhhhhhhhhjjhhhhhhjhhhhhhhjls:                      X-;;;;GGGGG",
"GGGGG;;;;;=X                                >flhhhhhhhhhhhhhhhhhjhhhhhhjhhhhhhhhhhhhhhhhhhlli$                       @;;;;;GGGGG",
"GGGGG;;;;;;+                                 >fljhjhhhhhhhhhhhhhhhhhhhhhhhhhhhhhhhhhhhhhllf5o                       X=;;;;;GGGGG",
"GGGGGG;;;;;=                                  >slkhhhhhhhhhhhhhhhhhhhhhhhhhhhhhhhhhhhjklgt:                         +-;;;;GGGGGG",
"GGGGGG;;;;;;+                                  #rhljhhhhhhhhhhhhhhhhhhhhhhhjhhhhhhjhklhy>                           *;;;;;GGGGGG",
"GGGGGGG;;;;;*                                   .1sllhjhhhhhhhhhhhhhhhhhhhhhhjhhhjllgi<.                           +;;;;;GGGGGGG",
"GGGGGGG;;;;;-+                                    $4sllkhhhhhhhhhhhhhhhhhjhhhjlllhsr<o                             *;;;;;GGGGGGG",
"GGGGGGGG;;;;;*                                      $4aglllkjjhhhhhhhjjkkllllhdpr1#                               X-;;;;;GGGGGGG",
"GGGGGGGG;;;;;;+                                       #,4idghkzzzzzllljgdspu41&O                                 X*;;;;;GGGGGGGG",
"GGGGGGGGG;;;;;=                                          o&>12455444421,&$O.                                     +;;;;;;GGGGGGGG",
"GGGGGGGGG;;;;;;+                       X-X                                                 +8*                  X=;;;;;GGGGGGGGG",
"GGGGGGGGGG;;;;;=X                    *qnB@                                                 +nv.                 @;;;;;;GGGGGGGGG",
"GGGGGGGGGG;;;;;;@                  6cBFFnX                                                  ;9X                X-;;;;;GGGGGGGGGG",
"GGGGGGGGGGG;;;;;;+    90        +8nBBFFn+      @6q6X                                                          X*;;;;;GGGGGGGGGGG",
"GGGGGGGGGGG;;;;;;=X   eSx=X  X-wNCnxBSc+   X;0cMAD0                            ;cb6               +0w*        *;;;;;;GGGGGGGGGGG",
"GGGGGGGGGGGG;;;;;;*X  @cCCMnnNVVn76MC9  @8cMMMDFFcX            X*X            0BMDbX              9FFe       +;;;;;;GGGGGGGGGGGG",
"GGGGGGGGGGGGG;;;;;;@    6xMBMbw; *VV7=qnNNnxxNFSeX           6bMnv6          qDx*VmX            ;nBcMV@     X=;;;;;GGGGGGGGGGGGG",
"GGGGGGGGGGGGG;;;;;;;+     X++   =NFVmMMbw;+8NFM7           XxSVx9vx+        7Db -Sw             9FN 8Z6  XX =;;;;;;GGGGGGGGGGGGG",
"GGGGGGGGGGGGGG;;;;;;;+         +mFFBe8=  *bFV0@           XeSc@  wcX       +VMX vB*        +6@  0Fx 7Dw 8e@@;;;;;;GGGGGGGGGGGGGG",
"GGGGGGGGGGGGGGG;;;;;;-X        +MVe*    8ZZw*   X+        8Cq   *w6        eZ; X9;    *+   7V;  qFe ;AZbSb*;;;;;;GGGGGGGGGGGGGGG",
"GGGGGGGGGGGGGGGG;;;;;;=X       X==     wAn;  +0nBNb;     =Nx    +@        *Ve   X    8VM;  xS*  qFx XxFFn;=;;;;;GGGGGGGGGGGGGGGG",
"GGGGGGGGGGGGGGGGG;;;;;;=X             qSeX  6NBMbBFN@   +mmX              xN*       *VAFNX+nNX  wFv  +87*=6;;;;;GGGGGGGGGGGGGGGG",
"GGGGGGGGGGGGGGGGG;;;;;;;=X           8Ze   9Cv;XXvFN+   eDv69q6X    XX   *Cq       XxM;xD-@Bc   eFb    X-;;;;;;GGGGGGGGGGGGGGGGG",
"GGGGGGGGGGGGGGGGGG;;;;;;;-X         @VvX  6Cx  @cSm=*cnmSFAVNv6X  =vBBc* qC;       =C9 ;S7-Z0 X*vFb  X*;;;;;;;GGGGGGGGGGGGGGGGGG",
"GGGGGGGGGGGGGGGGGGG;;;;;;;-+        7S6  XnD09bVFM@ ;mNFSx97;*X  9ZSBSF8 Mn+       0A= 7A;6D0+cn6w6 X*;;;;;;;GGGGGGGGGGGGGGGGGGG",
"GGGGGGGGGGGGGGGGGGGG;;;;;;;;@       *b;  XwDSVnND8  X@8Dv       9Zv;;CZ=+Ce      X;MZ+XmC+;FAVB9   X*;;;;;;;GGGGGGGGGGGGGGGGGGGG",
"GGGGGGGGGGGGGGGGGGGGG;;;;;;;;*X      *+   +696+8Fm;+  vC*      ;Vx  wFq ;Sq    +wNqAA;cFw +qne-   +=;;;;;;;GGGGGGGGGGGGGGGGGGGGG",
"GGGGGGGGGGGGGGGGGGGGGG;;;;;;;;=X               +eNmx*7Sw       bMX qDB@ 8Sq  X7BDv*MFAFn+   X   X@;;;;;;;;GGGGGGGGGGGGGGGGGGGGGG",
"GGGGGGGGGGGGGGGGGGGGGGGG;;;;;;;-@               X*;=-BN+      -Zx@bCDN*X6SB8wMSZ0X -mBq@       X*;;;;;;;;GGGGGGGGGGGGGGGGGGGGGGG",
"GGGGGGGGGGGGGGGGGGGGGGGGG;;;;;;;;=+                 xZ=       ;ZAZV6vFBmmBDSFSc=    @*       X@;;;;;;;;GGGGGGGGGGGGGGGGGGGGGGGGG",
"GGGGGGGGGGGGGGGGGGGGGGGGGG;;;;;;;;-*X              0Z9        X9mc- @wbw6=8xq;X             +=;;;;;;;;GGGGGGGGGGGGGGGGGGGGGGGGGG",
"GGGGGGGGGGGGGGGGGGGGGGGGGGG;;;;;;;;;=@X           6Zx          X+     +    X              X=;;;;;;;;;GGGGGGGGGGGGGGGGGGGGGGGGGGG",
"GGGGGGGGGGGGGGGGGGGGGGGGGGGGG;;;;;;;;;=@X        6CcX                                   +=-;;;;;;;;GGGGGGGGGGGGGGGGGGGGGGGGGGGGG",
"GGGGGGGGGGGGGGGGGGGGGGGGGGGGGG;;;;;;;;;;-@X    +wZxX                                 X+*;;;;;;;;;;GGGGGGGGGGGGGGGGGGGGGGGGGGGGGG",
"GGGGGGGGGGGGGGGGGGGGGGGGGGGGGGGG;;;;;;;;;;==-;0NB9X                                X@=;;;;;;;;;;GGGGGGGGGGGGGGGGGGGGGGGGGGGGGGGG",
"GGGGGGGGGGGGGGGGGGGGGGGGGGGGGGGGGG;;;;;;;;;;9bvw=                              XX@=-;6;;;;;;;;;GGGGGGGGGGGGGGGGGGGGGGGGGGGGGGGGG",
"GGGGGGGGGGGGGGGGGGGGGGGGGGGGGGGGGGG;;;;;;;;;;86-**@XX                      XX+*=;;;;;;;;;;;;;GGGGGGGGGGGGGGGGGGGGGGGGGGGGGGGGGGG",
"GGGGGGGGGGGGGGGGGGGGGGGGGGGGGGGGGGGGG;;;;;;;;--;;6;;==*@+XX X  XX   X XX@*===;;;;;;;;;;;;;;GGGGGGGGGGGGGGGGGGGGGGGGGGGGGGGGGGGGG",
"GGGGGGGGGGGGGGGGGGGGGGGGGGGGGGGGGGGGGGGG;;;;;;;;;;;;6;;;;;--=-==*==-=--;;;;;;;;;;;;;;;;;GGGGGGGGGGGGGGGGGGGGGGGGGGGGGGGGGGGGGGGG",
"GGGGGGGGGGGGGGGGGGGGGGGGGGGGGGGGGGGGGGGGGG;;;;;;;;;;;;;;;;;;;;;;;;;6;;;;;;;;;;;;;;;;;;GGGGGGGGGGGGGGGGGGGGGGGGGGGGGGGGGGGGGGGGGG",
"GGGGGGGGGGGGGGGGGGGGGGGGGGGGGGGGGGGGGGGGGGGGG;;;;;;;;;;;;;;;;;;;;;;;;;;;;;;;;;;;;;;GGGGGGGGGGGGGGGGGGGGGGGGGGGGGGGGGGGGGGGGGGGGG",
"GGGGGGGGGGGGGGGGGGGGGGGGGGGGGGGGGGGGGGGGGGGGGGGGG;;;;;;;;;;;;;;;;;;;;;;;;;;;;;;;GGGGGGGGGGGGGGGGGGGGGGGGGGGGGGGGGGGGGGGGGGGGGGGG",
"GGGGGGGGGGGGGGGGGGGGGGGGGGGGGGGGGGGGGGGGGGGGGGGGGGGGG;;;;;;;;;;;;;;;;;;;;;;GGGGGGGGGGGGGGGGGGGGGGGGGGGGGGGGGGGGGGGGGGGGGGGGGGGGG",
"GGGGGGGGGGGGGGGGGGGGGGGGGGGGGGGGGGGGGGGGGGGGGGGGGGGGGGGGGGGGG;;;;;;GGGGGGGGGGGGGGGGGGGGGGGGGGGGGGGGGGGGGGGGGGGGGGGGGGGGGGGGGGGGG"
};
