/* XPM */
static char *bitcoin32[] = {
/* columns rows colors chars-per-pixel */
"32 32 66 1 ",
"  c #010101",
". c #0B0101",
"X c #050A0A",
"o c #0C0C0C",
"O c #130202",
"+ c #1A0202",
"@ c #0D1313",
"# c #141414",
"$ c #1C1C1C",
"% c #240404",
"& c #2C0505",
"* c #330606",
"= c #3B0505",
"- c #3C0909",
"; c #2B1717",
": c #271D1D",
"> c #152020",
", c #232323",
"< c #252929",
"1 c #2B2B2B",
"2 c #2C3131",
"3 c #333434",
"4 c #343838",
"5 c #3C3C3C",
"6 c #430707",
"7 c #4C0707",
"8 c #440808",
"9 c #4C0808",
"0 c #5C0707",
"q c #530909",
"w c #5B0A0A",
"e c #640B0B",
"r c #6B0C0C",
"t c #740C0C",
"y c #7B0D0D",
"u c #3C4545",
"i c #424242",
"p c #4D4D4D",
"a c #545454",
"s c #5B5B5B",
"d c gray39",
"f c #6C6C6C",
"g c gray45",
"h c #7B7B7B",
"j c #830F0F",
"k c #890F0F",
"l c #910D0D",
"z c #980F0F",
"x c #8D1010",
"c c #931010",
"v c #9B1111",
"b c #A70D0D",
"n c #A11212",
"m c #AC1313",
"M c #B51414",
"N c #BB1414",
"B c #C41616",
"V c #CC1717",
"C c #D21717",
"Z c #D41818",
"A c #DC1818",
"S c #E51A1A",
"D c #EB1A1A",
"F c #818181",
"G c gray57",
"H c None",
/* pixels */
"HHHHHHHHHHHH55555455HHHHHHHHHHHH",
"HHHHHHHHHH5411,,,,1145iHHHHHHHHH",
"HHHHHHHH53,$#o    oo#,34HHHHHHHH",
"HHHHHH54<#            o,45HHHHHH",
"HHHHH54$                #15HHHHH",
"HHHH53@ *+               #15HHHH",
"HHH53;=Orq                #15HHH",
"HHH4:=c*eq         O...    #4HHH",
"HH5<-yyqO ..   .+O&eyr6O    $5HH",
"HH3#O77%*9wq-+qkzcnBVBMc9   o1iH",
"Hi,  .+&ww99wtBDDSSDSSDSNwO  $5H",
"H4$    r9.  &zCAZZZVMMBZSZ9. #4H",
"54#   Or%    +6kNVMxwwvZSDm% o15",
"51o   +r%      %8weewwwwtMAtO ,5",
"5,X   Or%  +O     +&=*O .9Cn% #5",
"5,X    e& O66.          .&Mx% $4",
"5,     e6  %y&        .8kNB8  $4",
"5,o    *r=  %q*.   O8rxMADyO  $5",
"51o    .wr7&%yxr99qymVSDSm%   $5",
"54o     .rBmvmZAVBBSSAZAM8   X15",
"H4#      +ySSZCZZZCCCADNw    o3H",
"Hi,       %jZDSSSSSSSCz9.    $5H",
"HH3#       .0zMNNNMblr&     o1iH",
"HH5,o   $1$X +60ww7*O  X    $4HH",
"HHH3$$44FFap3  $$..<5@  14 o1iHH",
"HHH53::3fhfgpo2u> @u4,,3df415HHH",
"HHHH51##<isgdidp5i453asadap5HHHH",
"HHHHH52oo#4sgFa1sGs,5ffp4<5HHHHH",
"HHHHHH54:o #iio:asp511:$15HHHHHH",
"HHHHHHHH41$14#  ###$$,,3HHHHHHHH",
"HHHHHHHHH55p5$$#o##$<15HHHHHHHHH",
"HHHHHHHHHHHH45543545HHHHHHHHHHHH"
};
